<svg xmlns="http://www.w3.org/2000/svg" fill="none" viewBox="0 0 145 96"><g clip-path="url(#clip0_881:10)"><ellipse cx="72.5" cy="89.128" fill="#0C0C0D" opacity=".2" rx="72.5" ry="6.872"/><path fill="#1040C1" d="M123.839 11.6h-99.84c-6.435-.297-6.94 4.296-6.94 7.052V83.94c0 2.756 2.218 4.99 4.955 4.99h99.099c4.955 0 7.681-2.418 7.681-5.174V20.727c0-2.756-2.218-9.127-4.955-9.127z"/><path fill="#56CCFE" d="M123.853 11.147h-98.79c-2.728 0-4.94 2.259-4.94 5.044v63.89c0 2.786 2.212 5.044 4.94 5.044h98.79c2.728 0 4.939-2.258 4.939-5.044v-63.89c0-2.785-2.211-5.044-4.939-5.044z"/><path fill="#F1EFEA" d="M118.982 38.659l2.807-16.032c.579-3.307-1.614-6.461-4.897-7.044L44.784 2.777c-3.283-.583-6.415 1.625-6.994 4.932l-5.418 30.95h86.61z"/><path fill="#1072EB" d="M44.177 14.09c.368-2.103 2.36-3.506 4.447-3.136l7.56 1.343c2.087.37 3.481 2.375 3.113 4.478-.368 2.103-2.359 3.507-4.447 3.136l-7.56-1.343c-2.087-.37-3.48-2.376-3.113-4.478z"/><path fill="#37A5F6" fill-rule="evenodd" d="M29.973 39.088a2.02 2.02 0 0 1 2.012-2.027h88.28a2.02 2.02 0 0 1 2.012 2.027 2.02 2.02 0 0 1-2.012 2.027h-88.28a2.02 2.02 0 0 1-2.012-2.027z" clip-rule="evenodd"/><path fill="#9EE0FE" fill-rule="evenodd" d="M31.559 46.94a2.02 2.02 0 0 1 2.012 2.027v17.819c0 2.798 2.253 5.067 5.031 5.067h74.619c2.779 0 5.031-2.269 5.031-5.067V48.967a2.02 2.02 0 0 1 2.013-2.027 2.02 2.02 0 0 1 2.012 2.027v17.819c0 5.037-4.054 9.12-9.056 9.12H38.602c-5.001 0-9.056-4.083-9.056-9.12V48.967a2.02 2.02 0 0 1 2.013-2.027z" clip-rule="evenodd"/><ellipse fill="#308A67" rx="15.172" ry="15.281" transform="matrix(-1 0 0 1 128.614 50.983)"/><ellipse fill="#E1FFFA" rx="15.172" ry="15.281" transform="matrix(-1 0 0 1 128.614 47.067)"/><ellipse fill="#69D5BA" rx="15.172" ry="15.281" transform="matrix(-1 0 0 1 128.614 47.927)"/><path fill="#fff" d="M125.918 54.121c0 1.4 1.126 2.534 2.516 2.534a2.524 2.524 0 0 0 2.515-2.534v-3.48h3.455a2.524 2.524 0 0 0 2.515-2.533 2.524 2.524 0 0 0-2.515-2.533h-3.455v-3.48c0-1.4-1.126-2.534-2.515-2.534a2.525 2.525 0 0 0-2.516 2.534v3.48h-3.455a2.525 2.525 0 0 0-2.516 2.533c0 1.4 1.126 2.534 2.516 2.534h3.455v3.48z"/></g><defs><clipPath id="clip0_881:10"><path fill="#fff" d="M0 0h145v96H0z"/></clipPath></defs></svg>