<svg xmlns="http://www.w3.org/2000/svg" fill="currentColor" viewBox="0 0 18 18"><path fill-rule="evenodd" d="M16 9A7 7 0 1 1 2 9a7 7 0 0 1 14 0zm-7.476 1h.945c.137 0 .215-.078.225-.224.048-.458.263-.683.74-1.053l.088-.068c.615-.478.946-1.053.946-1.765 0-1.092-.838-1.96-2.37-1.96-1.452 0-2.33.78-2.446 2.048-.01.156.078.234.224.234h1.072c.137 0 .215-.078.234-.225.05-.526.342-.828.878-.828.517 0 .829.331.829.76 0 .42-.225.712-.449.917l-.37.34c-.546.498-.741.84-.77 1.59 0 .156.077.234.224.234zM9 13.5a1 1 0 1 0 0-2 1 1 0 0 0 0 2z" clip-rule="evenodd"/></svg>